<svg width="300" height="38" viewBox="0 0 300 38" fill="none" xmlns="http://www.w3.org/2000/svg">
<path d="M288.238 24.3937L293.111 32.3137H300V31.3417L291.682 18.9577L299.084 8.08565V7.11365H292.488L288.201 13.6657H288.018L283.84 7.11365H277.135V8.08565L284.537 18.9577L276.255 31.3417V32.3137H283.108L288.018 24.3937H288.238Z" fill="#BEBEBE"/>
<path d="M253.084 28.7861L253.801 27.5639L253.345 27.2972L252.085 29.4452L252.229 29.5294L254.148 29.0106L253.437 30.2237L253.896 30.4921L255.154 28.3471L255.016 28.2666L253.084 28.7861Z" fill="#BEBEBE"/>
<path d="M251.339 25.3757L249.552 27.0965L249.922 27.4788L250.603 26.8224L251.263 27.5056L250.581 28.1619L250.948 28.5417L252.734 26.8211L252.368 26.4413L251.612 27.1688L250.953 26.4857L251.708 25.7581L251.339 25.3757Z" fill="#BEBEBE"/>
<path d="M248.425 23.9585C248.02 24.1855 247.945 24.6014 248.167 24.9967L248.683 25.9138L250.844 24.7022L250.28 23.6986C250.037 23.2663 249.635 23.1587 249.254 23.3718C249.032 23.4966 248.916 23.7036 248.946 23.9511C248.786 23.862 248.583 23.8702 248.425 23.9585ZM248.582 24.8087C248.492 24.6481 248.536 24.4891 248.696 24.4038C248.843 24.3254 248.985 24.3756 249.074 24.5331L249.311 24.9562L248.82 25.2318L248.582 24.8087ZM249.413 24.2537C249.373 24.1828 249.344 24.1175 249.352 24.0443C249.362 23.9534 249.423 23.8743 249.511 23.8288C249.662 23.7567 249.807 23.7973 249.895 23.9548L250.183 24.4675L249.689 24.7447L249.413 24.2537Z" fill="#BEBEBE"/>
<path d="M246.889 21.6676L247.309 23.1276L249.695 22.443L249.267 20.9557L248.803 21.0888L249.083 22.0621L248.538 22.2185L248.283 21.3337L247.837 21.4618L248.092 22.3467L247.608 22.4855L247.335 21.5394L246.889 21.6676Z" fill="#BEBEBE"/>
<path d="M247.881 20.4105C248.703 20.3883 249.126 19.7606 249.108 19.1092C249.094 18.5924 248.807 18.0723 248.149 17.9838L248.162 18.4936C248.466 18.5704 248.618 18.8178 248.626 19.1258C248.638 19.5682 248.292 19.8646 247.866 19.876C247.395 19.8887 247.068 19.6035 247.056 19.1646C247.048 18.8672 247.166 18.6408 247.443 18.5236L247.429 18.0103C246.819 18.1401 246.564 18.6783 246.578 19.1775C246.585 19.8291 247.055 20.4329 247.881 20.4105Z" fill="#BEBEBE"/>
<path d="M247.307 16.3664L249.279 16.8049L249.391 16.3037L247.418 15.8652L247.562 15.2223L247.112 15.1223L246.713 16.9128L247.163 17.0128L247.307 16.3664Z" fill="#BEBEBE"/>
<path d="M249.114 13.1429L250.385 13.7713L250.619 13.2985L248.385 12.194L248.311 12.3431L248.964 14.2188L247.703 13.595L247.467 14.0711L249.697 15.174L249.768 15.0312L249.114 13.1429Z" fill="#BEBEBE"/>
<path d="M252.238 11.3418L252.476 11.5545L252.79 11.2038L252.218 10.6909L252.019 10.9123L250.506 9.55786L250.149 9.95599L251.638 11.2892L251.041 11.9537L249.552 10.6205L249.197 11.0159L251.045 12.6706L252.238 11.3418Z" fill="#BEBEBE"/>
<path d="M253.582 8.58549L254.343 9.78057L254.789 9.49732L253.451 7.39697L253.31 7.48632L252.896 9.42848L252.141 8.24237L251.692 8.52751L253.028 10.6249L253.163 10.5393L253.582 8.58549Z" fill="#BEBEBE"/>
<path d="M256.58 7.36941L256.987 8.72626L257.493 8.57481L256.778 6.19012L256.618 6.2379L255.69 7.99425L255.286 6.64757L254.777 6.80005L255.491 9.18133L255.644 9.13559L256.58 7.36941Z" fill="#BEBEBE"/>
<path d="M260.316 6.43699L260.949 6.49071L260.814 8.06793L259.885 7.989C259.997 7.92744 260.06 7.77638 260.08 7.66791L260.316 6.43699ZM259.162 7.91689L259.094 8.71432L259.592 8.75664L259.622 8.40732C260.155 8.45264 260.555 8.48655 261.088 8.53187L261.058 8.88118L261.532 8.92139L261.6 8.12397L261.335 8.10146L261.507 6.07966C261.002 6.03674 260.401 5.98573 259.896 5.94281L259.559 7.60231C259.51 7.83631 259.459 7.93857 259.247 7.92409L259.162 7.91689Z" fill="#BEBEBE"/>
<path d="M264.852 8.41626C265.151 7.63934 264.738 7.00327 264.132 6.77107C263.517 6.53505 262.785 6.7288 262.485 7.50902C262.186 8.28924 262.585 8.92024 263.204 9.15753C263.906 9.42653 264.582 9.12045 264.852 8.41626ZM262.985 7.70062C263.173 7.21132 263.593 7.08773 263.957 7.2273C264.318 7.3656 264.548 7.7346 264.359 8.2272C264.165 8.73303 263.745 8.84544 263.385 8.70714C263.014 8.56502 262.791 8.20644 262.985 7.70062Z" fill="#BEBEBE"/>
<path d="M265.574 8.82242C265.073 9.47424 265.295 10.1977 265.813 10.5943C266.223 10.909 266.809 11.0139 267.292 10.5588L266.887 10.2484C266.636 10.4354 266.348 10.3976 266.103 10.2101C265.752 9.94061 265.74 9.48506 265.999 9.14791C266.286 8.77424 266.713 8.7003 267.062 8.96758C267.298 9.14866 267.4 9.38279 267.317 9.67157L267.725 9.98412C268.008 9.4291 267.75 8.89223 267.354 8.5883C266.842 8.18325 266.077 8.16779 265.574 8.82242Z" fill="#BEBEBE"/>
<path d="M269.064 10.8888L267.483 12.1464L267.803 12.548L269.384 11.2904L269.795 11.8056L270.155 11.5187L269.011 10.084L268.651 10.3708L269.064 10.8888Z" fill="#BEBEBE"/>
<path d="M269.264 13.6816C268.986 13.6874 268.884 13.5678 268.869 13.3032L268.449 13.4299C268.512 14.0892 268.865 14.2122 269.417 14.1943L271.529 14.201L271.577 14.1776L271.328 13.672L270.123 13.7024L270.115 13.6865L270.851 12.6992L270.593 12.1746L270.533 12.2042L269.511 13.6787L269.264 13.6816Z" fill="#BEBEBE"/>
<path d="M271.917 15.1713L269.487 15.6729C269.523 15.8463 269.559 16.0197 269.595 16.1931L271.553 15.789L271.744 16.7149L269.786 17.119C269.822 17.2924 269.858 17.4658 269.894 17.6392L272.324 17.1376L271.917 15.1713Z" fill="#BEBEBE"/>
<path d="M269.827 20.4857L272.303 20.6576L272.34 20.1278L271.395 20.0621L271.461 19.1154L272.406 19.181L272.442 18.6546L269.966 18.4827L269.93 19.009L270.977 19.0818L270.911 20.0285L269.864 19.9557L269.827 20.4857Z" fill="#BEBEBE"/>
<path d="M271.814 22.7845L272.006 22.3047L269.703 21.3818L269.312 22.3547C269.118 22.8378 269.324 23.2484 269.677 23.4433C270.097 23.6725 270.663 23.5672 270.895 22.9888L271.093 22.4957L271.758 22.762C271.774 22.7687 271.794 22.7766 271.814 22.7845ZM270.461 22.8148C270.368 23.0448 270.121 23.0985 269.922 22.9957C269.714 22.8857 269.675 22.6982 269.776 22.4452C269.832 22.3072 269.89 22.1704 269.945 22.0357L270.659 22.3217L270.48 22.7655C270.474 22.7818 270.467 22.7983 270.461 22.8148ZM270.957 24.9175L271.154 24.4278L268.85 23.505L268.654 23.9947L270.957 24.9175Z" fill="#BEBEBE"/>
<path d="M267.52 28.0147C267.851 28.3404 268.272 28.2973 268.591 27.9745L269.33 27.2254L267.565 25.4879L266.756 26.3075C266.407 26.6606 266.415 27.0763 266.726 27.382C266.908 27.561 267.139 27.6143 267.369 27.5176C267.327 27.6957 267.392 27.888 267.52 28.0147ZM268.295 27.6286C268.165 27.7597 268 27.7609 267.874 27.6315C267.757 27.5122 267.766 27.3619 267.893 27.2333L268.234 26.8878L268.636 27.283L268.295 27.6286ZM267.53 26.9855C267.473 27.0436 267.418 27.0891 267.346 27.1021C267.256 27.1177 267.163 27.0808 267.094 27.0087C266.983 26.8844 266.982 26.7342 267.109 26.6054L267.522 26.1868L267.926 26.5845L267.53 26.9855Z" fill="#BEBEBE"/>
<path d="M266.49 28.2406C266.074 27.5317 265.32 27.4642 264.757 27.7935C264.31 28.0549 263.992 28.5569 264.232 29.1759L264.673 28.9182C264.594 28.6155 264.737 28.363 265.004 28.2073C265.386 27.9836 265.813 28.1441 266.028 28.5109C266.267 28.9172 266.174 29.3408 265.794 29.5628C265.538 29.7131 265.282 29.7189 265.046 29.533L264.602 29.7925C265.01 30.2638 265.605 30.2276 266.036 29.9752C266.605 29.6551 266.908 28.9526 266.49 28.2406Z" fill="#BEBEBE"/>
<path d="M262.31 31.437L263.774 31.023L263.097 28.638L261.607 29.0598L261.738 29.5231L262.714 29.2471L262.868 29.7922L261.981 30.0431L262.108 30.4895L262.995 30.2386L263.132 30.7224L262.184 30.9907L262.31 31.437Z" fill="#BEBEBE"/>
<path d="M259.694 30.5496L260.708 31.7133L260.903 31.7103L260.864 29.2247L260.333 29.233L260.353 30.5749L259.718 29.8056L259.65 29.8065L259.038 30.5951L259.018 29.2532L258.486 29.2614L258.524 31.7471L258.716 31.7441L259.694 30.5496Z" fill="#BEBEBE"/>
<path d="M9.044 25.853V12.695H11.832V7.391H0.238V12.695H3.026V25.853H0V31.191H12.07V25.853H9.044Z" fill="#BEBEBE"/>
<path d="M34.3421 31.225H36.5181V7.391C34.4441 7.391 32.3701 7.391 30.2961 7.391V19.053L18.2601 7.289H16.0501V31.191C18.1241 31.191 20.2321 31.191 22.3401 31.191V19.495L34.3421 31.225Z" fill="#BEBEBE"/>
<path d="M45.8774 7.391H40.0294V8.309L50.2294 31.463H52.8134L62.9114 8.309V7.391H57.0634L51.6234 20.855H51.4534L45.8774 7.391Z" fill="#BEBEBE"/>
<path d="M81.5761 7.391C76.0001 7.391 72.2261 7.391 66.7181 7.391C66.7181 15.279 66.7181 23.235 66.7181 31.191C72.2261 31.191 76.3061 31.191 81.8821 31.191C81.8821 29.389 81.8821 27.553 81.8821 25.785C78.3121 25.785 76.2721 25.785 72.7701 25.785C72.7701 24.357 72.7701 22.997 72.7701 21.603H80.8621C80.8621 19.801 80.8621 17.999 80.8621 16.197H72.7701V12.831C76.2721 12.831 78.0401 12.831 81.5761 12.831C81.5761 10.995 81.5761 9.159 81.5761 7.391Z" fill="#BEBEBE"/>
<path d="M91.3208 23.915C89.2468 23.915 87.4788 23.915 85.4388 23.915C85.3028 34.387 104.683 34.217 104.683 24.221C104.683 18.271 100.059 17.557 95.3328 17.047C93.1908 16.809 91.4228 16.435 91.5588 14.633C91.7628 11.811 98.1548 11.539 98.1548 14.701C100.229 14.701 101.793 14.701 103.935 14.701C104.071 4.433 85.5748 4.433 85.7788 14.701C85.8468 19.869 89.2468 21.637 94.4148 22.011C96.7948 22.147 98.7668 22.521 98.7668 24.187C98.7668 26.975 91.3208 26.941 91.3208 23.915Z" fill="#BEBEBE"/>
<path d="M112.654 12.831V31.191C114.66 31.191 116.666 31.191 118.672 31.191V12.831H124.486C124.486 10.995 124.486 9.193 124.486 7.391H106.806C106.806 9.193 106.806 10.995 106.806 12.831H112.654Z" fill="#BEBEBE"/>
<path d="M139.769 17.659L130.453 7.323H128.209V31.191C130.283 31.191 132.357 31.191 134.431 31.191V20.583L139.463 25.887H140.143L145.209 20.583V31.191C147.283 31.191 149.357 31.191 151.431 31.191V7.323H149.255L139.769 17.659Z" fill="#BEBEBE"/>
<path d="M172.353 7.391C166.777 7.391 163.003 7.391 157.495 7.391C157.495 15.279 157.495 23.235 157.495 31.191C163.003 31.191 167.083 31.191 172.659 31.191C172.659 29.389 172.659 27.553 172.659 25.785C169.089 25.785 167.049 25.785 163.547 25.785C163.547 24.357 163.547 22.997 163.547 21.603H171.639C171.639 19.801 171.639 17.999 171.639 16.197H163.547V12.831C167.049 12.831 168.817 12.831 172.353 12.831C172.353 10.995 172.353 9.159 172.353 7.391Z" fill="#BEBEBE"/>
<path d="M196.174 31.225H198.35V7.391C196.276 7.391 194.202 7.391 192.128 7.391V19.053L180.092 7.289H177.882V31.191C179.956 31.191 182.064 31.191 184.172 31.191V19.495L196.174 31.225Z" fill="#BEBEBE"/>
<path d="M207.913 12.831V31.191C209.919 31.191 211.925 31.191 213.931 31.191V12.831H219.745C219.745 10.995 219.745 9.193 219.745 7.391H202.065C202.065 9.193 202.065 10.995 202.065 12.831H207.913Z" fill="#BEBEBE"/>
<path d="M241.081 14.701C241.081 10.587 237.783 7.391 233.669 7.391H223.503V31.191H234.655C239.517 31.191 242.033 27.825 242.067 23.677C242.067 21.569 241.149 19.801 239.211 18.815C240.367 17.863 241.081 16.129 241.081 14.701ZM234.213 21.739C236.661 21.739 236.695 25.785 234.247 25.785H229.385V21.739H234.213ZM233.193 12.831C235.641 12.831 235.641 16.673 233.227 16.673H229.385V12.831H233.193Z" fill="#BEBEBE"/>
</svg>
