<svg width="24" height="25" viewBox="0 0 24 25" fill="none" xmlns="http://www.w3.org/2000/svg">
<path d="M12 6.50001C15.79 6.50001 19.17 8.63001 20.82 12C20.23 13.22 19.4 14.27 18.41 15.12L19.82 16.53C21.21 15.3 22.31 13.76 23 12C21.27 7.61001 17 4.50001 12 4.50001C10.73 4.50001 9.51 4.70001 8.36 5.07001L10.01 6.72001C10.66 6.59001 11.32 6.50001 12 6.50001ZM10.93 7.64001L13 9.71001C13.57 9.96001 14.03 10.42 14.28 10.99L16.35 13.06C16.43 12.72 16.49 12.36 16.49 11.99C16.5 9.51001 14.48 7.50001 12 7.50001C11.63 7.50001 11.28 7.55001 10.93 7.64001ZM2.01 4.37001L4.69 7.05001C3.06 8.33001 1.77 10.03 1 12C2.73 16.39 7 19.5 12 19.5C13.52 19.5 14.98 19.21 16.32 18.68L19.74 22.1L21.15 20.69L3.42 2.95001L2.01 4.37001ZM9.51 11.87L12.12 14.48C12.08 14.49 12.04 14.5 12 14.5C10.62 14.5 9.5 13.38 9.5 12C9.5 11.95 9.51 11.92 9.51 11.87ZM6.11 8.47001L7.86 10.22C7.63 10.77 7.5 11.37 7.5 12C7.5 14.48 9.52 16.5 12 16.5C12.63 16.5 13.23 16.37 13.77 16.14L14.75 17.12C13.87 17.36 12.95 17.5 12 17.5C8.21 17.5 4.83 15.37 3.18 12C3.88 10.57 4.9 9.39001 6.11 8.47001Z" fill="#C4C4C4"/>
</svg>
